PathFileType	4	(X/Y/Z)	RBDS019\RBDS019runT45.trc
DataRate	CameraRate	NumFrames	NumMarkers	Units	OrigDataRate	OrigDataStartFrame	OrigNumFrames
150.000000	150.000000	6	33	mm	150.000000	562	4500
Frame#	Time	L.ASIS			L.Heel.Bottom			L.Heel.Lateral			L.Heel.Top			L.Iliac.Crest			L.MT1			L.MT5			L.PSIS			L.Shank.Bottom.Lateral			L.Shank.Bottom.Medial			L.Shank.Top.Lateral			L.Shank.Top.Medial			L.Thigh.Bottom.Lateral			L.Thigh.Bottom.Medial			L.Thigh.Top.Lateral			L.Thigh.Top.Medial			R.ASIS			R.ASY			R.Heel.Bottom			R.Heel.Lateral			R.Heel.Top			R.Iliac.Crest			R.MT1			R.MT5			R.PSIS			R.Shank.Bottom.Lateral			R.Shank.Bottom.Medial			R.Shank.Top.Lateral			R.Shank.Top.Medial			R.Thigh.Bottom.Lateral			R.Thigh.Bottom.Medial			R.Thigh.Top.Lateral			R.Thigh.Top.Medial			
		X1	Y1	Z1	X2	Y2	Z2	X3	Y3	Z3	X4	Y4	Z4	X5	Y5	Z5	X6	Y6	Z6	X7	Y7	Z7	X8	Y8	Z8	X9	Y9	Z9	X10	Y10	Z10	X11	Y11	Z11	X12	Y12	Z12	X13	Y13	Z13	X14	Y14	Z14	X15	Y15	Z15	X16	Y16	Z16	X17	Y17	Z17	X18	Y18	Z18	X19	Y19	Z19	X20	Y20	Z20	X21	Y21	Z21	X22	Y22	Z22	X23	Y23	Z23	X24	Y24	Z24	X25	Y25	Z25	X26	Y26	Z26	X27	Y27	Z27	X28	Y28	Z28	X29	Y29	Z29	X30	Y30	Z30	X31	Y31	Z31	X32	Y32	Z32	X33	Y33	Z33	

563	3.746666666666667	2342.785652956886	908.4477192583	963.5234184545981	2056.869259833778	543.8957129470323	1021.642633776441	2080.244133354951	514.3658951960285	981.0308013470734	2104.571879947031	538.9365398319993	1025.162384440894	2282.352672586826	963.9083349813402	918.7518086611295	2087.755993244646	343.294997890788	1064.08326762821	2082.873669209013	369.6040209079475	959.4891738412488	2169.931387823352	939.2067507307589	1008.312584910755	2202.849702245073	481.3199050463692	970.9126374826467	2197.578315542642	523.6651848682981	998.9653891324331	2279.978543151263	498.7670178370306	954.1966876027631	2278.991976010778	541.4505816450331	985.7213961980362	2451.974877046058	586.4289446339185	921.3227397679942	2402.380436329388	549.6913753556934	959.9839503082674	2379.863291388034	666.9731357095319	905.0462136398866	2330.354414962642	630.5241424624953	938.905717832492	2315.557245549053	921.6927184263704	1195.119793310054	nan	nan	nan	1892.925891391932	75.97016090153086	1089.772175149506	1923.166434474463	80.40114202993642	1130.63386599289	1914.947583763545	115.7185361882051	1091.980182305342	2254.195796907893	979.9193994510335	1214.576474639955	2084.747749156425	46.05132137604856	1052.066058048594	2053.578169556388	33.98755871232966	1154.839316195118	2162.183971062168	953.402789112657	1104.829145265629	2015.664503876069	169.7094355094252	1152.197341833092	1981.166581717257	198.0381593636265	1118.882645739823	2047.405774839643	240.444939944801	1177.409699568655	2015.376846299145	266.3939157846968	1142.434486270668	2195.833162078162	538.4372119661728	1220.618874305428	2143.012613879469	545.3674809989109	1173.310223474398	2193.816199669441	647.9988916002941	1237.365249969379	2140.820867862132	653.5322769130214	1194.297566199296	
564	3.753333333333333	2343.397659547168	914.8490127737024	963.5813362036334	2065.412812558447	520.167545453549	1022.317196323133	2091.593308124746	494.1544578349002	981.1147397764767	2113.396923105524	519.6734279545902	1025.915099138574	2282.742709316751	969.8857463453623	919.9237372091081	2114.664359077245	322.317771722229	1059.830512546519	2107.788272041152	350.8486367607612	955.9649801650304	2171.004692851463	944.2477588074061	1012.140500554043	2216.681257297522	470.9903151540861	971.0362598192338	2207.640650976832	512.6922801663261	999.0578832844158	2292.173816769229	495.204893309296	954.6741720861194	2287.351850432207	537.5900251685944	986.2093247104358	2461.624887523814	598.7878805398819	922.8183497608787	2413.112402897182	560.2413091107069	961.7360039250326	2386.532148604711	676.4702622052541	906.0874541090499	2338.438345656638	638.3788505266656	940.3197650413053	2318.881557241717	921.4567856795305	1195.176825363019	nan	nan	nan	1867.769874406073	86.78344915630821	1090.378114977209	1898.077731067522	89.06436757103963	1131.259892568368	1891.911916562599	125.0757652909592	1092.912158320165	2261.474953583113	981.7541149414997	1215.480881084181	2056.358493035136	45.03018071835697	1052.128227319187	2024.835568770207	34.65375185325566	1154.868688918946	2164.752733583087	956.6976129481461	1109.329573463557	1991.925952950056	176.7958181110981	1152.357812163506	1958.101224183274	204.9281604735387	1118.312119989707	2024.239437178847	247.5848793572247	1176.675928520271	1992.768622034061	273.3254791064421	1141.06096972223	2181.757965822051	543.9012912086577	1218.5367156883	2129.284197822941	554.0516717658342	1171.587994394595	2185.887756315764	653.1065888203791	1236.217306020652	2133.166435323914	661.8737214403261	1193.442974025974	
565	3.76	2344.463658522116	921.3155806170056	964.262065185753	2075.883474977994	495.285940767549	1023.088123991972	2104.516229725436	473.1081664465256	981.2748068826165	2123.722864163125	499.2947479927601	1026.759297706381	2283.96479439983	976.1297397332494	921.2184306314456	2143.297532953268	301.8932770631224	1055.550472381236	2134.157534178429	332.5849185635749	952.4683757301063	2172.61681374642	949.6251100940563	1015.707652225817	2231.326955757424	460.3539331680214	971.158139963518	2218.587941539664	500.9037056873856	999.3968867468111	2304.62310539901	491.2506300314818	955.2794689952165	2295.992102789509	532.7975590231982	987.0464016928754	2470.034553291766	610.8984074102402	924.4182992136672	2422.57926147249	570.9107893122384	963.692187394322	2392.407977517953	685.8607784627151	907.0796546172601	2345.64046387204	646.3967010210962	941.7009880824434	2322.303754094167	921.2274895951047	1195.448243179856	nan	nan	nan	1844.205512809007	99.08421132245786	1091.195562769963	1874.456951389843	99.02286821792421	1132.074246553314	1870.621018181467	135.6026376803147	1094.030058004048	2269.648234929396	983.4142801074673	1216.050864421236	2028.559861409245	44.38557325577418	1052.36924944937	1996.707355721325	35.85475724653397	1155.098161346465	2167.858200402754	960.2559576385233	1113.672126317487	1969.577120747137	184.6927715970861	1152.763020832966	1936.403071868988	212.4913225689859	1117.890935803899	2002.315600073787	255.6533452038915	1176.080669877869	1971.368716338492	281.0658096650406	1139.75198914026	2168.163569717189	550.5328728189348	1216.495951392157	2116.500331974911	563.9036794316921	1169.635043842285	2178.464094232213	658.9938490327227	1235.109964565789	2126.440718274054	670.9936860670741	1192.368698286477	
566	3.766666666666667	2345.911906837665	927.6942829067071	965.5166324693508	2088.458539539609	469.4778053221423	1023.735630475861	2119.157200326019	451.3231750065551	981.3620596562414	2135.720861458848	477.977395142176	1027.509882893959	2285.819703744839	982.546562209302	922.5310095202752	2173.61410262838	282.2955942638571	1051.424700699104	2161.958902328599	314.8450226454781	949.1258648945777	2174.715169837857	955.2673770532846	1018.912797823514	2246.8662476717	449.4246762538806	971.2034133830991	2230.576878161981	488.3615932624822	999.8645522657018	2317.407894118571	486.8080293901204	955.9478877289131	2305.083920402974	527.0274441120173	988.1304593145054	2477.269820277061	622.57189290579	926.1087061121365	2430.811032796375	581.4371684327498	965.7490686452524	2397.515895315006	694.9935719956129	908.0092005342181	2351.944723256106	654.3609315607351	942.940028552648	2325.766547150477	921.0536930696197	1195.884618560422	nan	nan	nan	1822.322683266192	112.8300752933437	1092.22466364951	1852.375768183638	110.2757985032283	1133.074053218378	1851.099339964986	147.2613410314843	1095.329089035036	2278.469321395022	984.9860275226056	1216.197148057923	2001.38258937106	44.41396872311253	1052.777025201476	1969.24317011373	37.81309243806339	1155.494796828746	2171.457504520733	964.0862301991532	1117.731726125532	1948.695082997768	193.3172306452742	1153.405104510269	1916.140051451915	220.6900226908915	1117.655506711799	1981.78521951274	264.5206012877077	1175.638964925627	1951.321728034045	289.5277377626474	1138.564388585923	2155.166831104065	558.1756874820154	1214.541139870123	2104.752650883019	574.6818060879007	1167.482738401184	2171.575231130209	665.5585560462755	1234.02375511942	2120.657378380409	680.7130797120653	1191.036072382904	
567	3.773333333333333	2347.64927767174	933.8331217269011	967.2370179822493	2103.223915458752	442.9620052049692	1024.097911263418	2135.591794357281	428.8942046497624	981.2694472966203	2149.482293239263	455.8935549408461	1028.025611152755	2288.096918637281	989.0288066435151	923.7720916554066	2205.499787998524	263.7404506726425	1047.636694735283	2191.126814776197	297.6297387916865	946.0688207890905	2177.22281151703	961.0904251704538	1021.684207615254	2263.314426010993	438.2069617585042	971.122991064343	2243.689338304338	475.1335524346189	1000.361885710835	2330.559184210386	481.7887380035061	956.622017251623	2314.73820180414	520.2585644668867	989.3624421386285	2483.414825263765	633.6561335952811	927.8680501293981	2437.850404261417	591.5748473381992	967.7652240246929	2401.898798409574	703.7559658432186	908.8737410895425	2357.361546669644	662.0891376524066	943.933728733449	2329.223113201494	920.9799363196261	1196.414448109367	nan	nan	nan	1802.122853477338	127.9523595615736	1093.438809805867	1831.827847126557	122.8028151793685	1134.227886355493	1833.278167614017	160.0076876860435	1096.77661741106	2287.660863334937	986.5602643489686	1215.874686425262	1974.838686405411	45.43729134327373	1053.295945070438	1942.472383135298	40.76957458322892	1155.983575494252	2175.471301077028	968.175563477756	1121.411981914149	1929.287340306423	202.5978832469432	1154.242417804502	1897.318805316687	229.5136030397215	1117.614362061589	1962.745558040604	274.0516821582727	1175.344367161855	1932.72674859899	298.6329079552978	1137.538218409002	2142.916244346949	566.6011578561854	1212.712622233438	2094.121059259712	586.065623948561	1165.188815018606	2165.257335007123	672.6485557560545	1232.936805942774	2115.796190319867	690.7951730199286	1189.434994848828	
568	3.78	2349.567613120584	939.5891051581143	969.2692998166495	2120.187702816725	415.9423917272367	1024.084822996046	2153.835906817084	405.9161114644861	980.9400792739648	2165.029161985507	433.2030647138596	1028.220349408718	2290.591849803061	995.4542810664406	924.8742645553903	2238.778372884276	246.3851795628271	1044.361517891106	2221.559695743182	280.9233430202297	943.4250147348419	2180.042716445477	967.0004128818565	1023.97823286654	2280.629301301801	426.6928069354469	970.8975056223732	2257.936415704165	461.2834391949018	1000.818174657363	2344.060687131743	476.1096234145491	957.2545388734192	2325.004057094725	512.4849288694982	990.6535637075349	2488.56187542876	644.0284603711862	929.6639452423432	2443.745517077065	601.102287588547	969.5712777705875	2405.613390603592	712.0692505829539	909.6780400045003	2361.922001782411	669.439006016541	944.5903253959505	2332.632119694349	921.0477193720565	1196.955141951969	nan	nan	nan	1783.519779786862	144.3622749843869	1094.784837825908	1812.729439927155	136.5664982833746	1135.476119929061	1817.000424035775	173.7970329874078	1098.31352942932	2296.923477713284	988.2189901436935	1215.090014874033	1948.926768791325	47.78648201948258	1053.827907553451	1916.407344283147	44.97016774082841	1156.451722442178	2179.785140730262	972.4882339579841	1124.642600946839	1911.294095212603	212.487907401139	1155.203252904431	1879.889107942618	238.9885548711455	1117.748396657293	1945.236785521945	284.1225151147565	1175.172421773922	1915.636458027371	308.3251603384762	1136.696197212632	2131.592714256	575.5176784252832	1211.045880769189	2084.679182981909	597.6752789198586	1162.835839224726	2159.559405668557	680.0653555180376	1231.833196319341	2111.812587738275	700.9577761409899	1187.592657121636	
